<svg width="250" height="249" viewBox="0 0 250 249" fill="none" xmlns="http://www.w3.org/2000/svg">
<path d="M130.255 138.812C130.185 138.931 130.116 139.041 130.041 139.155C129.997 139.22 129.952 139.284 129.902 139.349C130.066 139.13 129.977 139.255 129.937 139.299C129.748 139.513 129.554 139.707 129.34 139.896C129.146 140.07 129.554 139.752 129.335 139.901C129.296 139.931 129.256 139.961 129.211 139.985C129.107 140.05 129.002 140.12 128.898 140.179C128.788 140.239 128.679 140.294 128.57 140.348C128.336 140.463 128.818 140.264 128.575 140.348C128.505 140.373 128.435 140.398 128.366 140.423C128.132 140.497 127.894 140.547 127.655 140.597C127.406 140.647 127.869 140.577 127.705 140.592C127.645 140.597 127.58 140.607 127.521 140.607C127.372 140.612 127.222 140.622 127.073 140.617C126.949 140.612 126.825 140.602 126.7 140.592C126.497 140.577 126.755 140.602 126.78 140.607C126.705 140.592 126.631 140.582 126.556 140.567C126.278 140.507 126.009 140.423 125.741 140.333C125.452 140.239 125.855 140.413 125.577 140.264C125.457 140.199 125.338 140.144 125.219 140.075C125.1 140.005 124.985 139.936 124.871 139.856C124.826 139.826 124.781 139.791 124.732 139.762C124.548 139.632 124.886 139.906 124.662 139.707C124.453 139.523 124.249 139.339 124.055 139.135C123.951 139.026 123.852 138.907 123.757 138.787C123.911 138.981 123.603 138.568 123.548 138.484C122.733 137.241 122.355 135.774 122.266 134.273C122.102 131.608 122.703 128.973 123.543 126.463C124.011 125.056 121.793 124.454 121.331 125.851C119.929 130.057 118.994 135.352 121.416 139.394C122.907 141.88 125.791 143.48 128.699 142.725C130.2 142.331 131.473 141.313 132.244 139.975C132.979 138.688 130.996 137.529 130.255 138.812Z" fill="#231300"/>
<path d="M69.2489 111.687C51.1024 111.687 36.3965 126.397 36.3965 144.539C36.3965 153.582 40.0506 161.765 45.9618 167.707C44.709 172.758 42.5463 177.873 38.9171 177.873C41.4277 181.25 52.9071 176.745 58.033 175.423C61.533 176.696 65.3113 177.392 69.2489 177.392C87.3952 177.392 102.101 162.68 102.101 144.539C102.101 126.397 87.3902 111.687 69.2489 111.687Z" fill="#117DC1"/>
<path d="M36.4313 143.118C36.4114 143.59 36.3965 144.063 36.3965 144.54C36.3965 153.583 40.0506 161.766 45.9618 167.708C44.709 172.759 42.5463 177.874 38.9171 177.874C41.4277 181.25 52.9073 176.746 58.033 175.424C61.533 176.696 65.3114 177.392 69.2489 177.392C80.8924 177.392 91.109 171.331 96.9456 162.199C90.6466 165.763 83.4328 167.787 75.7667 167.787C58.739 167.791 43.9434 157.799 36.4313 143.118Z" fill="#1E70AC"/>
<path d="M67.8067 175.016C69.5667 175.165 71.7641 175.851 73.6135 176.557C75.9552 177.446 78.2172 178.545 80.4097 179.753C82.7265 181.031 84.9786 182.443 87.1114 184.014C88.056 184.714 88.9758 185.45 89.8508 186.236C90.2187 186.564 90.5816 186.908 90.9296 187.256C91.4019 187.727 91.8245 188.33 92.4758 188.553C93.3756 188.861 94.181 188.518 94.6881 187.747C95.0411 187.216 95.4488 186.719 95.8366 186.206C96.5674 185.232 97.2336 184.213 97.9097 183.199C98.73 181.966 96.7464 180.817 95.926 182.04C95.3145 182.96 94.713 183.889 94.0567 184.774C93.828 185.082 93.5944 185.386 93.3607 185.689C93.1768 185.928 92.8982 186.186 92.7741 186.464C92.5653 186.928 93.2563 186.162 93.3209 186.435C93.306 186.371 93.0873 186.182 93.0425 186.136C91.4665 184.466 89.6469 183.02 87.7826 181.678C83.681 178.724 79.1668 176.249 74.4488 174.429C72.316 173.604 70.0935 172.918 67.8016 172.723C67.1851 172.669 66.6533 173.29 66.6533 173.872C66.6583 174.528 67.1853 174.96 67.8067 175.016Z" fill="#231300"/>
<path d="M86.4852 134.288C87.8027 134.248 89.0555 134.348 90.194 134.546C90.6961 133.751 90.9845 132.796 90.9547 131.772C90.8801 129.137 88.7871 127.054 86.2814 127.129C83.7757 127.198 81.802 129.396 81.8766 132.031C81.9064 133.06 82.2494 133.995 82.7963 134.76C83.9199 134.492 85.1628 134.323 86.4852 134.288Z" fill="black"/>
<path d="M83.9276 133.663C84.1152 133.486 84.0212 133.082 83.7175 132.761C83.4138 132.439 83.0157 132.322 82.828 132.5C82.6404 132.677 82.7345 133.081 83.0381 133.403C83.3418 133.724 83.7401 133.841 83.9276 133.663Z" fill="white"/>
<path d="M88.2698 131.454C88.871 131.437 89.343 130.889 89.3242 130.231C89.3055 129.572 88.8029 129.052 88.2018 129.069C87.6008 129.086 87.1288 129.634 87.1475 130.293C87.1663 130.951 87.6688 131.471 88.2698 131.454Z" fill="white"/>
<path d="M62.7606 134.964C64.0781 134.924 65.3309 135.023 66.4694 135.222C66.9716 134.427 67.2599 133.472 67.2301 132.448C67.1555 129.813 65.0625 127.73 62.5568 127.805C60.0511 127.879 58.0774 130.072 58.1519 132.707C58.1818 133.736 58.5248 134.67 59.0717 135.436C60.1953 135.168 61.4431 134.999 62.7606 134.964Z" fill="black"/>
<path d="M60.2021 134.34C60.3896 134.163 60.2955 133.759 59.9918 133.437C59.6881 133.116 59.29 132.999 59.1024 133.177C58.9149 133.354 59.0089 133.758 59.3126 134.079C59.6161 134.401 60.0144 134.517 60.2021 134.34Z" fill="white"/>
<path d="M64.5453 132.136C65.1463 132.119 65.6184 131.571 65.5996 130.912C65.5809 130.253 65.0783 129.733 64.4773 129.75C63.8762 129.768 63.4042 130.315 63.4229 130.974C63.4418 131.633 63.9442 132.153 64.5453 132.136Z" fill="white"/>
<path d="M85.3316 171.032C87.5439 168.829 90.2137 166.285 93.2762 165.5C93.8479 165.35 93.997 165.325 94.5887 165.335C94.6881 165.335 94.7875 165.345 94.887 165.349C95.1455 165.365 94.7826 165.319 95.0262 165.365C95.235 165.404 95.4388 165.458 95.6426 165.524C95.6924 165.538 95.7421 165.558 95.7868 165.578C95.9211 165.627 95.6277 165.508 95.762 165.563C95.8415 165.598 95.926 165.637 96.0056 165.683C96.1995 165.782 96.3834 165.902 96.5574 166.031C96.6469 166.095 96.5127 165.995 96.5077 165.991C96.5475 166.021 96.5922 166.055 96.627 166.09C96.7066 166.16 96.7861 166.23 96.8607 166.299C97.0148 166.448 97.154 166.608 97.2982 166.772C97.4672 166.965 97.3081 166.777 97.3926 166.89C97.4473 166.97 97.507 167.051 97.5617 167.13C97.6959 167.333 97.8252 167.542 97.9395 167.755C98.0489 167.95 98.1483 168.149 98.2428 168.352C98.3919 168.67 98.3373 168.541 98.4665 168.875C98.8394 169.833 99.1078 170.833 99.3166 171.838C99.7243 173.806 99.8884 175.65 99.9679 177.764C100.018 179.031 99.7293 180.87 101.345 181.264C102.011 181.423 102.822 181.268 103.498 181.244C104.855 181.194 106.212 181.159 107.574 181.154C108.867 181.154 108.867 179.146 107.574 179.146C106.346 179.146 105.114 179.176 103.886 179.22C103.204 179.245 102.394 179.152 101.723 179.295C101.738 179.289 101.638 179.295 101.638 179.295C101.792 178.963 102.021 179.593 102.021 179.593C102.021 179.593 102.016 179.319 102.016 179.305C102.011 179.1 102.011 178.893 102.006 178.688C101.996 178.237 101.981 177.784 101.957 177.326C101.852 175.159 101.633 172.981 101.156 170.863C100.704 168.869 99.9928 166.826 98.6355 165.255C97.2684 163.679 95.2996 163.093 93.2762 163.446C91.8095 163.698 90.4225 164.41 89.1845 165.206C87.2556 166.448 85.5304 167.994 83.9097 169.605C82.9999 170.525 84.4168 171.941 85.3316 171.032Z" fill="#231300"/>
<path d="M70.6007 136.699C70.7499 136.615 71.073 136.585 71.242 136.679C71.4061 136.769 71.5453 137.032 71.5652 137.236C71.7442 138.852 72.8976 140.065 74.5233 140.324C75.9303 140.542 77.4665 139.672 78.0432 138.26C78.2271 137.813 78.2868 137.296 78.3166 136.804C78.3415 136.376 78.5105 136.157 78.9082 136.113C79.301 136.068 79.5446 136.316 79.5893 136.764C79.7534 138.449 78.6 140.443 77.0538 141.144C74.7669 142.182 72.3805 141.537 71.0084 139.434C70.6355 138.857 70.1483 136.948 70.6007 136.699Z" fill="black"/>
<path d="M50.4309 151.876C50.2867 154.885 52.7129 157.281 55.2782 158.43C58.4998 159.872 62.2534 159.876 65.4302 158.305C67.5083 157.281 69.1639 155.581 70.372 153.622C71.068 152.498 69.2931 151.464 68.6021 152.588C66.8819 155.378 64.063 157.291 60.8017 157.45C58.1965 157.575 55.4423 156.724 53.6923 154.87C53.4089 154.572 53.3791 154.537 53.1653 154.214C53.0758 154.079 52.9913 153.94 52.9167 153.797C52.8769 153.721 52.7079 153.369 52.7775 153.522C52.6632 153.25 52.5886 152.961 52.524 152.673C52.514 152.623 52.4842 152.413 52.509 152.623C52.4991 152.548 52.4892 152.468 52.4892 152.389C52.4792 152.214 52.4792 152.047 52.4892 151.872C52.5438 150.559 50.4906 150.564 50.4309 151.876Z" fill="black"/>
<path d="M69.4474 150.967C70.7649 150.967 70.7698 148.919 69.4474 148.919C68.125 148.919 68.125 150.967 69.4474 150.967Z" fill="black"/>
<path d="M190.999 162.282C190.337 160.826 189.73 159.673 189.213 158.772C189.143 158.599 189.07 158.424 189 158.251C190.486 155.551 191.337 152.454 191.337 149.167V130.191C191.337 119.775 182.814 111.249 172.395 111.249H147.7C138.582 111.249 131.125 118.706 131.125 127.824V144.434C131.125 157.456 141.779 168.109 154.8 168.109H172.395C174.95 168.109 177.386 167.592 179.614 166.663C179.906 166.713 180.135 166.757 180.234 166.782C189.054 169.099 191.589 174.717 191.589 174.717C191.589 174.717 194.602 170.213 190.999 162.282Z" fill="#EC2327"/>
<path d="M189.213 158.773C189.143 158.599 189.068 158.425 188.999 158.251C190.486 155.551 191.335 152.455 191.335 149.168V141.859C184.952 153.538 169.381 161.795 151.17 161.795C146.229 161.795 141.486 161.179 137.061 160.061C141.406 164.987 147.754 168.109 154.804 168.109H172.399C174.955 168.109 177.391 167.592 179.618 166.663C179.91 166.713 180.139 166.757 180.239 166.783C189.058 169.099 191.594 174.717 191.594 174.717C191.594 174.717 194.607 170.207 191.003 162.278C190.337 160.827 189.73 159.673 189.213 158.773Z" fill="#C91720"/>
<path d="M146.179 163.967C142.315 165.971 138.766 168.507 135.41 171.265C133.71 172.663 132.054 174.125 130.434 175.616C129.648 176.336 128.868 177.062 128.092 177.794C127.719 178.146 127.341 178.5 126.968 178.852C126.844 178.967 126.506 179.186 126.437 179.349C126.69 179.375 126.944 179.399 127.202 179.425C127.197 179.425 127.197 179.425 127.192 179.425C127.192 179.295 126.968 179.081 126.899 178.977C125.422 176.69 123.946 174.403 122.474 172.116C121.574 170.719 119.332 172.017 120.237 173.423C121.649 175.606 123.056 177.794 124.468 179.976C125.154 181.04 125.944 182.213 127.401 181.716C127.963 181.523 128.38 181.079 128.803 180.682C129.255 180.254 129.713 179.822 130.165 179.395C133.556 176.207 137.021 173.071 140.799 170.346C142.932 168.809 145.155 167.413 147.486 166.2C148.963 165.434 147.655 163.202 146.179 163.967Z" fill="#231300"/>
<path d="M169.759 166.419C173.716 168.511 177.381 171.106 180.845 173.94C182.565 175.348 184.246 176.803 185.906 178.285C186.761 179.051 187.617 179.822 188.467 180.592C189.337 181.383 190.53 182.049 191.56 181.059C192.027 180.607 192.345 179.981 192.699 179.438C193.071 178.862 193.443 178.285 193.817 177.714C194.588 176.531 195.352 175.342 196.124 174.159C196.969 172.856 194.885 171.643 194.04 172.941C193.314 174.059 192.588 175.173 191.862 176.292C191.51 176.833 191.162 177.376 190.808 177.917C190.635 178.186 190.456 178.46 190.281 178.728C190.192 178.862 190.102 178.997 190.019 179.136C189.879 179.365 189.923 179.21 189.989 179.205C190.202 179.205 190.416 179.205 190.629 179.205C190.297 179.156 190.013 178.742 189.76 178.514C189.377 178.166 188.989 177.818 188.607 177.47C187.835 176.774 187.06 176.083 186.28 175.401C184.693 174.009 183.082 172.643 181.428 171.33C178.136 168.72 174.69 166.305 170.977 164.34C169.609 163.61 168.386 165.693 169.759 166.419Z" fill="#231300"/>
<path d="M165.767 134.168C165.946 134.054 166.334 134.099 166.632 134.228C166.93 134.357 166.96 134.472 167.189 134.601C167.418 134.73 167.722 135.063 168.298 134.879C168.77 134.73 173.771 132.826 175.551 132.145C175.979 131.981 177.072 131.653 177.526 131.747C178.242 131.901 178.614 132.473 178.634 132.856C179.246 136.709 177.759 137.489 175.259 138.524C171.017 139.926 169.332 137.112 169.173 136.908C169.019 136.704 168.358 136.361 167.726 136.222C167.099 136.082 166.304 135.794 165.966 135.466C165.733 135.232 165.305 134.472 165.767 134.168Z" fill="black"/>
<path d="M170.575 136.017C170.53 135.898 170.55 135.66 170.699 135.525C170.844 135.391 177.526 131.752 177.585 133.91C177.589 134.153 177.615 134.983 177.45 135.411C177.281 135.838 177.068 136.241 176.665 136.594C176.263 136.947 174.722 137.623 173.572 137.822C171.719 138.15 170.675 136.266 170.575 136.017Z" fill="white"/>
<path d="M153.169 134.809C152.99 134.7 152.608 134.745 152.314 134.869C152.021 134.993 151.992 135.098 151.767 135.227C151.544 135.351 151.246 135.669 150.679 135.495C150.212 135.356 145.27 133.571 143.51 132.935C143.087 132.781 142.003 132.477 141.561 132.567C140.855 132.716 140.492 133.258 140.472 133.621C139.895 137.28 141.372 138.016 143.842 138.98C148.034 140.293 149.675 137.613 149.824 137.419C149.977 137.225 150.624 136.897 151.24 136.763C151.857 136.629 152.638 136.35 152.966 136.037C153.215 135.813 153.632 135.093 153.169 134.809Z" fill="black"/>
<path d="M148.446 136.579C148.492 136.465 148.466 136.236 148.323 136.112C148.178 135.987 141.566 132.567 141.521 134.61C141.516 134.844 141.496 135.629 141.665 136.032C141.834 136.44 142.048 136.818 142.45 137.156C142.848 137.489 144.375 138.12 145.509 138.309C147.338 138.607 148.352 136.818 148.446 136.579Z" fill="white"/>
<path d="M155.297 139.383C157.136 138.364 159.334 138.17 161.328 138.831C161.935 139.03 162.193 138.076 161.591 137.877C159.349 137.136 156.858 137.385 154.795 138.533C154.239 138.836 154.74 139.692 155.297 139.383Z" fill="black"/>
<path d="M161.746 136.51C161.442 137.549 161.382 138.618 161.531 139.687C161.567 139.945 161.909 140.109 162.144 140.035C162.426 139.945 162.526 139.702 162.492 139.423C162.502 139.488 162.482 139.329 162.476 139.314C162.472 139.249 162.462 139.19 162.456 139.125C162.446 139.016 162.442 138.906 162.436 138.797C162.432 138.563 162.436 138.325 162.452 138.091C162.472 137.828 162.486 137.708 162.531 137.465C162.575 137.231 162.631 137.002 162.695 136.774C162.77 136.525 162.605 136.222 162.347 136.162C162.088 136.107 161.82 136.247 161.746 136.51Z" fill="black"/>
<path d="M153.696 137.976C153.766 138.031 153.835 138.09 153.895 138.155C153.925 138.185 153.955 138.22 153.985 138.254C154 138.269 154.01 138.284 154.024 138.299C154.064 138.344 153.96 138.21 154.01 138.284C154.06 138.359 154.11 138.433 154.149 138.513C154.169 138.553 154.189 138.592 154.209 138.632C154.213 138.647 154.243 138.712 154.213 138.642C154.179 138.563 154.219 138.657 154.223 138.667C154.253 138.747 154.279 138.826 154.298 138.911C154.308 138.955 154.318 139 154.323 139.04C154.343 139.144 154.313 138.95 154.318 139.01C154.318 139.03 154.323 139.05 154.323 139.07C154.333 139.159 154.333 139.249 154.328 139.338C154.328 139.383 154.318 139.428 154.318 139.472C154.318 139.453 154.338 139.363 154.323 139.428C154.318 139.457 154.313 139.487 154.308 139.517C154.259 139.771 154.382 140.064 154.656 140.129C154.905 140.183 155.208 140.054 155.267 139.781C155.452 138.871 155.138 137.862 154.398 137.28C154.289 137.195 154.189 137.136 154.05 137.136C153.931 137.136 153.781 137.19 153.702 137.28C153.533 137.454 153.477 137.807 153.696 137.976Z" fill="black"/>
<path d="M173.115 137.484C173.991 137.484 174.702 136.774 174.702 135.898C174.702 135.022 173.991 134.312 173.115 134.312C172.239 134.312 171.53 135.022 171.53 135.898C171.53 136.774 172.239 137.484 173.115 137.484Z" fill="black"/>
<path d="M146.179 138.274C147.055 138.274 147.766 137.564 147.766 136.688C147.766 135.813 147.055 135.103 146.179 135.103C145.303 135.103 144.594 135.813 144.594 136.688C144.594 137.564 145.303 138.274 146.179 138.274Z" fill="black"/>
<path d="M183.605 204.322L184.018 204.694C184.032 204.704 184.008 204.72 183.988 204.714L183.336 204.476L183.605 204.322Z" fill="#3B3B3B"/>
<path d="M181.388 203.417L161.959 192.166V192.474L181.388 203.726V203.417Z" fill="#EE9B1E"/>
<path d="M181.577 203.088L162.148 191.838L161.959 192.166L181.388 203.416L181.577 203.088Z" fill="#FFB821"/>
<path d="M181.844 202.935L162.415 191.685L162.146 191.838L181.575 203.089L181.844 202.935Z" fill="#FFC343"/>
<path d="M181.209 203.044L182.034 203.084C182.153 203.099 182.432 203.253 182.496 203.312L183.764 204.462C183.615 204.376 183.53 204.496 183.585 204.565L181.611 203.845C181.531 203.79 181.412 203.74 181.388 203.67L181.119 203.099L181.209 203.044Z" fill="#F5DFC1"/>
<path d="M182.307 203.199C182.257 203.318 182.068 203.248 181.999 203.298C181.899 203.368 182.378 203.636 182.08 203.68C181.935 203.7 181.751 203.606 181.617 203.571C181.572 203.561 181.507 203.551 181.493 203.581C181.453 203.65 181.631 203.72 181.607 203.849L180.439 203.153L181.016 202.457L182.307 203.199Z" fill="#FFB821"/>
<path d="M181.02 202.457L181.368 202.656L182.307 203.199C182.257 203.312 182.074 203.248 181.999 203.292C181.989 203.302 181.989 203.312 181.989 203.322L180.722 202.592L181.02 202.457Z" fill="#FFC343"/>
<path d="M180.587 202.954L181.696 203.596C181.67 203.586 181.641 203.576 181.616 203.571C181.571 203.561 181.507 203.551 181.491 203.581C181.452 203.65 181.631 203.72 181.607 203.849L180.234 203.059L180.587 202.954Z" fill="#EE9B1E"/>
<path d="M175.7 208.614L153.036 195.523V195.39L175.7 208.475V208.614Z" fill="#D1A15A"/>
<path d="M178.599 206.938L175.7 208.612V208.473L178.599 206.803V206.938Z" fill="#EEBA65"/>
<path d="M175.7 208.474L153.036 195.389L155.929 193.713L178.598 206.804L175.7 208.474Z" fill="#FFD079"/>
<path d="M168.746 201.115L168.775 201.135L167.845 201.672L167.815 201.652L168.746 201.115ZM168.696 201.847L168.726 201.866L169.386 201.483L169.356 201.463L168.696 201.847ZM169.302 202.199L169.332 202.219L169.993 201.837L169.963 201.817L169.302 202.199ZM167.477 201.145L167.507 201.165L168.169 200.783L168.139 200.763L167.477 201.145ZM165.653 200.091L165.683 200.112L166.344 199.729L166.314 199.709L165.653 200.091ZM164.778 199.893L164.808 199.912L165.737 199.376L165.707 199.355L164.778 199.893ZM166.871 200.793L166.9 200.812L167.562 200.429L167.532 200.409L166.871 200.793ZM169.913 202.547L169.943 202.567L170.605 202.185L170.575 202.165L169.913 202.547ZM166.26 200.44L166.29 200.459L166.95 200.077L166.92 200.057L166.26 200.44ZM172.345 203.954L172.375 203.974L173.035 203.591L173.005 203.571L172.345 203.954ZM173.562 204.655L173.592 204.675L174.254 204.293L174.224 204.273L173.562 204.655ZM172.956 204.307L172.986 204.327L173.648 203.944L173.618 203.925L172.956 204.307ZM175.471 204.998L175.442 204.979L174.781 205.361L174.811 205.381L175.471 204.998ZM173.9 205.162L173.93 205.182L174.861 204.645L174.831 204.625L173.9 205.162ZM164.434 199.385L164.464 199.405L165.126 199.023L165.096 199.003L164.434 199.385ZM170.858 203.408L170.888 203.427L171.818 202.891L171.788 202.871L170.858 203.408ZM171.738 203.601L171.768 203.621L172.429 203.239L172.399 203.219L171.738 203.601ZM170.52 202.9L170.55 202.92L171.211 202.537L171.182 202.517L170.52 202.9ZM156.525 194.822L156.555 194.842L157.216 194.459L157.186 194.439L156.525 194.822ZM176.048 205.331L175.388 205.714L175.417 205.734L176.078 205.351L176.048 205.331ZM155.65 194.628L155.68 194.648L156.609 194.111L156.579 194.091L155.65 194.628ZM157.136 195.175L157.166 195.195L157.828 194.812L157.798 194.793L157.136 195.175ZM157.743 195.523L157.773 195.543L158.434 195.16L158.405 195.141L157.743 195.523ZM176.605 206.415L176.635 206.435L177.297 206.052L177.267 206.033L176.605 206.415ZM177.903 206.4L177.873 206.381L176.943 206.918L176.973 206.937L177.903 206.4ZM158.349 195.876L158.379 195.896L159.041 195.513L159.011 195.493L158.349 195.876ZM176.684 205.699L176.655 205.679L175.994 206.062L176.024 206.082L176.684 205.699ZM163.221 198.685L163.251 198.704L163.913 198.322L163.883 198.302L163.221 198.685ZM161.736 198.138L161.765 198.158L162.694 197.621L162.665 197.601L161.736 198.138ZM162.611 198.337L162.64 198.356L163.301 197.974L163.271 197.954L162.611 198.337ZM158.693 196.383L158.723 196.403L159.652 195.866L159.622 195.847L158.693 196.383ZM161.392 197.631L161.422 197.65L162.084 197.268L162.054 197.248L161.392 197.631ZM163.828 199.038L163.858 199.058L164.52 198.675L164.49 198.655L163.828 199.038ZM159.568 196.577L159.598 196.597L160.258 196.214L160.229 196.195L159.568 196.577ZM160.179 196.93L160.209 196.95L160.871 196.567L160.841 196.547L160.179 196.93ZM160.785 197.283L160.815 197.302L161.477 196.92L161.447 196.9L160.785 197.283Z" fill="#CE9D4E"/>
<path d="M233.484 33.3298L234.102 32.6985L210.048 9.16797L209.8 9.24751L135.699 32.435L135.962 33.2702L209.81 10.1623L233.484 33.3298Z" fill="#2A2D38"/>
<path d="M143.787 59.0527V66.4952C143.787 67.5492 144.648 68.4093 145.702 68.4093C146.756 68.4093 147.615 67.5492 147.615 66.4952H148.635C148.635 68.111 147.317 69.4284 145.702 69.4284C144.085 69.4284 142.769 68.111 142.769 66.4952V59.0527H143.787Z" fill="#EC2327"/>
<path d="M150.107 48.6816H149.037V57.0787H150.107V48.6816Z" fill="#EC2327"/>
<path d="M138.717 48.6816H137.648V57.0787H138.717V48.6816Z" fill="#EC2327"/>
<path d="M152.96 43.5166H134.441V47.5237H152.96V43.5166Z" fill="#EC2327"/>
<path d="M151.344 54.8213H136.206V60.1906H151.344V54.8213Z" fill="#FFD04F"/>
<path d="M147.392 47.5233C147.392 48.7265 148.367 49.7059 149.57 49.7059C150.773 49.7059 151.747 48.7314 151.747 47.5233C151.747 46.3153 150.773 45.3408 149.57 45.3408C148.367 45.3458 147.392 46.3202 147.392 47.5233Z" fill="#FFD04F"/>
<path d="M136.266 47.5236C136.266 48.6472 137.175 49.557 138.299 49.557C139.423 49.557 140.332 48.6472 140.332 47.5236C140.332 46.4 139.423 45.4902 138.299 45.4902C137.175 45.4902 136.266 46.4 136.266 47.5236Z" fill="#FFD04F"/>
<path d="M199.415 155.492V43.2235C199.415 43.0146 199.584 42.8506 199.788 42.8506H210.074C210.282 42.8506 210.446 43.0196 210.446 43.2235V155.492C210.446 155.701 210.277 155.864 210.074 155.864H199.788C199.584 155.87 199.415 155.701 199.415 155.492ZM209.7 43.5963H200.166V155.118H209.7V43.5963Z" fill="#2A2D38"/>
<path d="M200.105 155.869C200.19 155.869 200.274 155.839 200.344 155.785L209.999 147.765C210.084 147.696 210.134 147.586 210.134 147.477C210.134 147.368 210.084 147.258 209.999 147.189L200.692 139.458L209.999 131.727C210.084 131.657 210.134 131.553 210.134 131.439C210.134 131.329 210.084 131.22 209.999 131.15L200.692 123.42L209.999 115.689C210.084 115.619 210.134 115.51 210.134 115.4C210.134 115.291 210.084 115.182 209.999 115.112L200.692 107.381L209.999 99.6504C210.084 99.5808 210.134 99.4714 210.134 99.362C210.134 99.2527 210.084 99.1433 209.999 99.0737L200.692 91.3428L209.999 83.612C210.084 83.5424 210.134 83.4331 210.134 83.3237C210.134 83.2143 210.084 83.1049 209.999 83.0353L200.692 75.3045L209.999 67.5737C210.084 67.5041 210.134 67.3947 210.134 67.2853C210.134 67.176 210.084 67.0666 209.999 66.997L200.692 59.2662L209.999 51.5353C210.084 51.4657 210.134 51.3564 210.134 51.247C210.134 51.1376 210.084 51.0282 209.999 50.9586L200.344 42.9394C200.185 42.8052 199.952 42.8301 199.817 42.9892C199.688 43.1483 199.707 43.3819 199.866 43.5162L209.173 51.247L199.866 58.9778C199.783 59.0474 199.733 59.1568 199.733 59.2662C199.733 59.3755 199.783 59.4849 199.866 59.5545L209.173 67.2853L199.866 75.0162C199.783 75.0858 199.733 75.1951 199.733 75.3045C199.733 75.4139 199.783 75.5233 199.866 75.5929L209.173 83.3237L199.866 91.0545C199.783 91.1241 199.733 91.2285 199.733 91.3428C199.733 91.4522 199.783 91.5616 199.866 91.6312L209.173 99.362L199.866 107.093C199.783 107.162 199.733 107.272 199.733 107.381C199.733 107.491 199.783 107.6 199.866 107.67L209.173 115.4L199.866 123.131C199.783 123.201 199.733 123.31 199.733 123.42C199.733 123.529 199.783 123.638 199.866 123.708L209.173 131.439L199.866 139.17C199.783 139.239 199.733 139.349 199.733 139.458C199.733 139.567 199.783 139.677 199.866 139.746L209.173 147.477L199.866 155.209C199.707 155.342 199.688 155.577 199.817 155.736C199.892 155.819 199.996 155.869 200.105 155.869Z" fill="#2A2D38"/>
<path d="M209.76 155.869C209.869 155.869 209.974 155.825 210.048 155.736C210.183 155.576 210.158 155.342 209.999 155.209L200.692 147.477L209.999 139.746C210.084 139.677 210.133 139.567 210.133 139.458C210.133 139.348 210.084 139.239 209.999 139.169L200.692 131.439L209.999 123.708C210.084 123.638 210.133 123.529 210.133 123.419C210.133 123.31 210.084 123.201 209.999 123.131L200.692 115.4L209.999 107.669C210.084 107.6 210.133 107.49 210.133 107.381C210.133 107.272 210.084 107.162 209.999 107.093L200.692 99.3619L209.999 91.6311C210.084 91.5615 210.133 91.4521 210.133 91.3427C210.133 91.2334 210.084 91.124 209.999 91.0544L200.692 83.3236L209.999 75.5928C210.084 75.5231 210.133 75.4138 210.133 75.3044C210.133 75.195 210.084 75.0856 209.999 75.016L200.692 67.2852L209.999 59.5544C210.084 59.4848 210.133 59.3754 210.133 59.266C210.133 59.1567 210.084 59.0473 209.999 58.9777L200.692 51.2469L209.999 43.516C210.158 43.3868 210.178 43.1481 210.048 42.9891C209.915 42.83 209.68 42.8101 209.521 42.9393L199.866 50.9585C199.783 51.0281 199.733 51.1325 199.733 51.2469C199.733 51.3562 199.783 51.4656 199.866 51.5352L209.173 59.266L199.866 66.9969C199.783 67.0665 199.733 67.1709 199.733 67.2852C199.733 67.3946 199.783 67.504 199.866 67.5736L209.173 75.3044L199.866 83.0352C199.783 83.1048 199.733 83.2142 199.733 83.3236C199.733 83.4329 199.783 83.5423 199.866 83.6119L209.173 91.3427L199.866 99.0736C199.783 99.1432 199.733 99.2525 199.733 99.3619C199.733 99.4713 199.783 99.5807 199.866 99.6503L209.173 107.381L199.866 115.112C199.783 115.182 199.733 115.291 199.733 115.4C199.733 115.51 199.783 115.619 199.866 115.689L209.173 123.419L199.866 131.15C199.783 131.22 199.733 131.324 199.733 131.439C199.733 131.548 199.783 131.657 199.866 131.727L209.173 139.458L199.866 147.189C199.783 147.258 199.733 147.363 199.733 147.477C199.733 147.586 199.783 147.696 199.866 147.765L209.517 155.78C209.587 155.839 209.676 155.869 209.76 155.869Z" fill="#2A2D38"/>
<path d="M127.336 43.2226C127.336 43.1132 127.381 43.0187 127.456 42.9491L135.659 32.7027C135.728 32.6132 135.838 32.5635 135.952 32.5635H191.589C191.699 32.5635 191.808 32.6132 191.878 32.6977L200.359 42.9839C200.454 43.0983 200.469 43.2524 200.409 43.3817C200.349 43.5109 200.216 43.5954 200.071 43.5954H127.719H127.714C127.505 43.5954 127.336 43.4264 127.336 43.2226ZM191.41 33.3142H136.131L128.5 42.8497H199.275L191.41 33.3142Z" fill="#2A2D38"/>
<path d="M127.859 43.4216C127.968 43.4216 128.077 43.3719 128.152 43.2824L135.744 33.8463L143.47 43.1482C143.614 43.3172 143.902 43.3172 144.047 43.1482L151.777 33.8414L159.508 43.1482C159.652 43.3172 159.94 43.3172 160.085 43.1482L167.815 33.8414L175.547 43.1482C175.69 43.3172 175.979 43.3172 176.122 43.1482L183.854 33.8414L191.584 43.1482C191.723 43.3172 192.017 43.3172 192.16 43.1482L196.02 38.5047C196.149 38.3456 196.128 38.112 195.969 37.9777C195.81 37.8435 195.577 37.8684 195.442 38.0274L191.873 42.3279L184.142 33.0211C183.997 32.852 183.709 32.852 183.565 33.0211L175.835 42.3279L168.104 33.0211C167.96 32.852 167.672 32.852 167.527 33.0211L159.797 42.3279L152.065 33.0211C151.922 32.852 151.633 32.852 151.489 33.0211L143.758 42.3279L136.027 33.0211C135.957 32.9365 135.853 32.8769 135.739 32.8868C135.624 32.8868 135.52 32.9365 135.45 33.026L127.57 42.8201C127.441 42.9792 127.466 43.2178 127.63 43.3471C127.69 43.3968 127.774 43.4216 127.859 43.4216Z" fill="#2A2D38"/>
<path d="M200.057 43.5956C200.141 43.5956 200.226 43.5658 200.296 43.5111C200.455 43.3818 200.479 43.1432 200.344 42.9841C199.877 42.4174 192.081 32.9514 192.002 32.852C191.928 32.7625 191.818 32.7178 191.709 32.7178C191.594 32.7178 191.49 32.7725 191.421 32.8619L183.963 42.3378L176.118 33.0111C176.048 32.9266 175.943 32.8769 175.83 32.8769C175.72 32.8769 175.615 32.9266 175.541 33.0111L167.81 42.3179L160.08 33.0111C159.935 32.8421 159.646 32.8421 159.503 33.0111L151.771 42.3179L144.041 33.0161C143.896 32.847 143.608 32.847 143.465 33.0161L135.729 42.3328L131.99 37.9976C131.856 37.8385 131.617 37.8236 131.463 37.9578C131.309 38.0921 131.289 38.3307 131.423 38.4848L135.45 43.1531C135.52 43.2377 135.624 43.2774 135.739 43.2824C135.848 43.2824 135.952 43.2327 136.022 43.1482L143.753 33.8414L151.483 43.1482C151.628 43.3172 151.916 43.3172 152.06 43.1482L159.791 33.8414L167.521 43.1482C167.666 43.3172 167.955 43.3172 168.098 43.1482L175.834 33.8364L183.685 43.1681C183.759 43.2526 183.864 43.3023 183.977 43.3023C184.092 43.2973 184.196 43.2476 184.266 43.1581L191.719 33.6823C193.156 35.4273 199.351 42.9543 199.769 43.4564C199.842 43.5509 199.948 43.5956 200.057 43.5956Z" fill="#2A2D38"/>
<path d="M242.329 43.6751L210.024 43.6005C209.879 43.6005 209.75 43.516 209.686 43.3867C209.626 43.2575 209.64 43.1034 209.73 42.989L217.963 32.7028C218.038 32.6133 218.148 32.5536 218.257 32.5636L233.848 32.6382C233.957 32.6382 234.061 32.6879 234.136 32.7724L242.618 43.0586C242.712 43.168 242.727 43.3271 242.667 43.4563C242.608 43.5906 242.473 43.6751 242.329 43.6751ZM218.436 33.3143L210.8 42.8498L241.534 42.9244L233.669 33.3889L218.436 33.3143Z" fill="#2A2D38"/>
<path d="M210.164 43.4221C210.273 43.4221 210.382 43.3723 210.458 43.2828L218.048 33.8468L225.774 43.1486C225.844 43.2331 225.948 43.2828 226.063 43.2828C226.172 43.2828 226.281 43.2331 226.351 43.1486L234.37 33.4938C234.504 33.3347 234.479 33.101 234.32 32.9668C234.161 32.8326 233.928 32.8574 233.793 33.0165L226.063 42.3233L218.333 33.0165C218.263 32.932 218.154 32.8723 218.044 32.8823C217.929 32.8823 217.825 32.932 217.756 33.0215L209.875 42.8155C209.746 42.9746 209.772 43.2132 209.935 43.3425C210 43.3972 210.084 43.4221 210.164 43.4221Z" fill="#2A2D38"/>
<path d="M218.043 43.2828C218.158 43.2828 218.261 43.233 218.331 43.1485L226.063 33.8417L233.793 43.1485C233.938 43.3176 234.226 43.3176 234.369 43.1485L238.303 38.4106C238.436 38.2515 238.412 38.0178 238.253 37.8836C238.094 37.7494 237.859 37.7742 237.726 37.9333L234.081 42.3232L226.351 33.0164C226.206 32.8474 225.918 32.8474 225.774 33.0164L218.038 42.3332L214.3 37.998C214.165 37.8389 213.932 37.824 213.773 37.9582C213.618 38.0924 213.598 38.3311 213.733 38.4852L217.76 43.1535C217.834 43.233 217.933 43.2828 218.043 43.2828Z" fill="#2A2D38"/>
<path d="M199.494 30.0582V21.1392C199.494 21.0497 199.53 20.9602 199.589 20.8906L209.711 9.33166C209.815 9.21234 209.98 9.17256 210.123 9.22724C210.268 9.28193 210.368 9.42115 210.368 9.57527V30.0533C210.368 30.2621 210.199 30.4261 209.994 30.4261H199.872C199.663 30.4311 199.494 30.2621 199.494 30.0582ZM209.622 10.5745L200.246 21.2784V29.6804H209.622V10.5745Z" fill="#2A2D38"/>
<path d="M209.994 30.1183C210.099 30.1183 210.203 30.0735 210.273 29.989C210.408 29.8349 210.392 29.5962 210.239 29.462L200.445 20.8562C200.29 20.7219 200.051 20.7369 199.918 20.891C199.783 21.0451 199.798 21.2837 199.952 21.418L209.746 30.0238C209.815 30.0835 209.905 30.1183 209.994 30.1183Z" fill="#2A2D38"/>
<path d="M199.898 30.2574C199.977 30.2574 200.057 30.2326 200.127 30.1779L210.084 22.5366C210.164 22.4719 210.219 22.3824 210.229 22.278C210.239 22.1736 210.209 22.0742 210.139 21.9947L204.725 15.6758C204.591 15.5167 204.352 15.5018 204.198 15.636C204.039 15.7702 204.024 16.0089 204.158 16.163L209.314 22.1836L199.673 29.5813C199.51 29.7056 199.48 29.9442 199.604 30.1033C199.673 30.2077 199.789 30.2574 199.898 30.2574Z" fill="#2A2D38"/>
<path d="M218.382 28.3525H191.536V54.6871H218.382V28.3525Z" fill="#FFD04F"/>
<path d="M214.206 31.251H195.702V41.6167H214.206V31.251Z" fill="white"/>
<path d="M212.256 143.168H196.949V156.442H212.256V143.168Z" fill="#117DC1"/>
<path d="M24.9962 159.916H22.8833V198.784H24.9962V159.916Z" fill="#B2B2B2"/>
<path d="M26.4731 197.675H21.417V200.982H26.4731V197.675Z" fill="#B2B2B2"/>
<path d="M40.5624 147.348C41.328 148.113 41.328 149.356 40.5624 150.122L25.4686 165.216C24.703 165.981 23.4601 165.981 22.6945 165.216L7.53613 150.058C6.77051 149.292 6.77051 148.05 7.53613 147.284L22.6298 132.189C23.3955 131.424 24.6384 131.424 25.404 132.189L40.5624 147.348Z" fill="#FFD04F"/>
<path d="M24.0768 163.168C23.5598 163.168 23.0775 162.969 22.7096 162.601L10.1514 150.043C9.4007 149.293 9.4007 148.064 10.1514 147.314L22.6599 134.805C23.0229 134.442 23.5101 134.238 24.0271 134.238C24.5442 134.238 25.0264 134.437 25.3943 134.805L37.9525 147.368C38.7082 148.12 38.7082 149.347 37.9525 150.098L25.444 162.607C25.0761 162.969 24.5939 163.168 24.0768 163.168ZM24.0222 134.855C23.6692 134.855 23.341 134.994 23.0875 135.243L10.579 147.752C10.0669 148.263 10.0669 149.104 10.579 149.615L23.1422 162.179C23.3908 162.428 23.7239 162.567 24.0768 162.567C24.4298 162.567 24.7579 162.428 25.0065 162.179L37.515 149.671C38.0271 149.158 38.0271 148.319 37.515 147.806L24.9518 135.243C24.7082 134.989 24.3751 134.855 24.0222 134.855Z" fill="#2A2D38"/>
<path d="M25.8965 154.527C25.8965 155.551 25.0662 156.387 24.0371 156.387C23.013 156.387 22.1777 155.557 22.1777 154.527C22.1777 153.503 23.008 152.668 24.0371 152.668C25.0662 152.668 25.8965 153.499 25.8965 154.527Z" fill="black"/>
<path d="M25.459 151.683H22.6153L21.9292 141.988L26.2396 142.018L25.459 151.683Z" fill="black"/>
<path d="M24.1562 152.673V156.382C25.1257 156.322 25.8963 155.511 25.8963 154.527C25.8963 153.538 25.1257 152.733 24.1562 152.673Z" fill="black"/>
<path d="M24.1562 142.004V151.684H25.4588L26.2393 142.019L24.1562 142.004Z" fill="black"/>
<path d="M220.435 205.073L209.806 180.753H207.171L196.476 205.073H220.435Z" fill="#EC2327"/>
<path d="M205.166 185.312L203.67 188.712H213.285L211.798 185.312H205.166Z" fill="#FFD04F"/>
<path d="M202.462 191.46L200.678 195.517H216.259L214.489 191.46H202.462Z" fill="#FFD04F"/>
<path d="M219.266 202.393L217.273 197.835H199.658L197.655 202.393H219.266Z" fill="#FFD04F"/>
<path d="M221.727 206.952C221.727 207.111 221.602 207.24 221.449 207.24H195.686C195.531 207.24 195.408 207.111 195.408 206.952V205.142C195.408 204.983 195.531 204.854 195.686 204.854H221.449C221.602 204.854 221.727 204.983 221.727 205.142V206.952Z" fill="#EC2327"/>
<path d="M176.044 111.011C176.044 111.011 176.267 114.59 167.726 116.932C159.572 119.169 148.949 119.273 143.663 117.016C137.916 114.56 144.727 110.305 144.727 110.305L176.044 111.011Z" fill="#FFD04F"/>
<path d="M176.048 111.01L174.298 110.971C173.517 112.224 171.529 114.043 166.487 115.425C158.334 117.662 147.71 117.767 142.425 115.51C142.033 115.346 141.705 115.172 141.426 114.988C141.615 115.714 142.271 116.42 143.673 117.016C148.958 119.273 159.587 119.169 167.736 116.937C176.267 114.59 176.048 111.01 176.048 111.01Z" fill="#FAB271"/>
<path d="M176.044 111.011C175.611 103.001 168.756 95.9268 160.378 95.9268C152.001 95.9268 145.161 102.29 144.727 110.3C144.727 110.3 144.047 113.65 158.31 113.71C171.146 113.765 176.044 111.011 176.044 111.011Z" fill="#FCB94D"/>
<path d="M160.384 95.9316C157.803 95.9316 155.362 96.5382 153.215 97.6071C153.513 99.546 153.612 101.51 153.428 103.454C153.254 105.313 152.841 107.182 152.369 108.987C152.121 109.937 151.827 110.866 151.439 111.766C151.226 112.273 150.962 112.78 150.629 113.223C151.956 113.422 153.577 113.576 155.565 113.65C155.605 112.651 155.725 111.647 155.933 110.672C156.401 108.49 157.281 106.367 158.485 104.483C159.692 102.584 161.199 100.754 162.969 99.3521C164.067 98.4771 165.256 97.786 166.529 97.259C164.639 96.4089 162.565 95.9316 160.384 95.9316Z" fill="#FFD04F"/>
<path d="M51.0674 115.375C51.0674 115.375 50.8437 119.194 59.9516 121.664C68.6519 124.026 79.9772 124.11 85.6099 121.689C91.7349 119.054 84.4565 114.535 84.4565 114.535L51.0674 115.375Z" fill="#FFD04F"/>
<path d="M51.0674 115.376L52.9317 115.331C53.767 116.663 55.8898 118.597 61.2741 120.059C69.9694 122.421 81.2995 122.505 86.9273 120.084C87.34 119.905 87.688 119.716 87.9912 119.527C87.7924 120.298 87.0964 121.053 85.6049 121.695C79.9721 124.116 68.6469 124.031 59.9466 121.67C50.8437 119.189 51.0674 115.376 51.0674 115.376Z" fill="#FAB271"/>
<path d="M51.0684 115.376C51.5108 106.84 58.7992 99.2779 67.7331 99.253C76.6621 99.2281 83.9704 105.994 84.4576 114.531C84.4576 114.531 85.1934 118.1 69.9853 118.2C56.3034 118.299 51.0684 115.376 51.0684 115.376Z" fill="#FCB94D"/>
<path d="M67.7322 99.2578C70.4864 99.2529 73.0866 99.8892 75.3785 101.028C75.0653 103.096 74.9609 105.189 75.1647 107.257C75.3586 109.241 75.8011 111.229 76.3082 113.153C76.5766 114.168 76.8898 115.152 77.3074 116.117C77.5361 116.653 77.8145 117.195 78.1775 117.668C76.7655 117.881 75.0354 118.05 72.9175 118.14C72.8728 117.076 72.7385 116.007 72.5148 114.963C72.0127 112.636 71.0681 110.379 69.7854 108.371C68.4928 106.352 66.877 104.403 64.9878 102.912C63.8145 101.982 62.5468 101.246 61.1846 100.69C63.1881 99.7799 65.4054 99.2628 67.7322 99.2578Z" fill="#FFD04F"/>
<path d="M124.96 121.133C124.224 119.373 122.067 119.437 120.859 120.248C119.651 121.058 119.268 123.141 120.004 124.901C120.739 126.661 122.365 128.312 123.822 127.337C125.03 126.532 125.696 122.898 124.96 121.133Z" fill="black"/>
<path d="M125.433 126.045C126.059 124.951 127.307 122.281 126.283 122.062C125.681 121.933 122.932 125.209 122.798 127.113C122.708 128.322 124.801 127.143 125.433 126.045Z" fill="black"/>
<path d="M118.477 134.308C117.637 134.184 116.364 133.542 115.768 132.946C115.509 132.687 115.465 132.289 115.658 131.981C117.965 128.317 121.227 121.993 125.085 114.69C126.253 112.483 127.799 109.798 129.017 107.516C129.141 107.277 129.44 107.193 129.673 107.322L131.687 108.426C131.93 108.56 132.01 108.863 131.871 109.102C129.196 113.576 126.78 119.343 124.413 124.091C122.211 128.506 120.024 132.016 119.313 133.826C119.178 134.154 118.835 134.363 118.477 134.308Z" fill="#EEAF50"/>
<path d="M137.414 110.549L132.82 109.46C132.626 109.415 132.442 109.341 132.268 109.246L125.681 105.642C125.522 105.552 125.462 105.353 125.547 105.189L126.78 102.937C126.869 102.778 127.068 102.719 127.232 102.803L133.8 106.393C133.974 106.487 134.133 106.606 134.277 106.741L137.697 110.032C137.757 110.091 137.772 110.186 137.732 110.26L137.628 110.449C137.583 110.529 137.494 110.569 137.414 110.549Z" fill="black"/>
<path d="M126.854 102.832C126.894 102.758 126.968 102.718 127.043 102.703C127.107 102.688 127.237 102.718 127.296 102.753L130.548 104.533L133.784 106.303C133.864 106.347 134.008 106.437 134.077 106.487C134.142 106.531 134.197 106.586 134.261 106.631C134.286 106.651 134.505 106.854 134.525 106.874C134.525 106.874 137.408 109.634 137.647 109.857C137.707 109.917 137.732 110.001 137.717 110.066C137.732 110.081 137.662 110.24 137.657 110.255C137.627 110.34 137.528 110.389 137.433 110.369C137.369 110.359 133.227 109.345 133.227 109.345C133.198 109.335 132.879 109.256 132.849 109.246C132.805 109.231 132.76 109.216 132.715 109.201C132.606 109.166 132.402 109.072 132.303 109.017L129.3 107.376L129.006 107.217L125.904 105.522C125.884 105.512 125.73 105.408 125.74 105.388C125.621 105.323 125.616 105.094 125.68 104.975L126.247 103.941L126.854 102.832Z" fill="white"/>
<path opacity="0.25" d="M126.854 102.832C126.894 102.758 126.968 102.718 127.043 102.703C127.107 102.688 127.237 102.718 127.296 102.753L130.548 104.533L133.784 106.303C133.864 106.347 134.008 106.437 134.077 106.487C134.142 106.531 134.197 106.586 134.261 106.631C134.286 106.651 134.505 106.854 134.525 106.874C134.525 106.874 137.408 109.634 137.647 109.857C137.707 109.917 137.732 110.001 137.717 110.066C137.732 110.081 137.662 110.24 137.657 110.255C137.627 110.34 137.528 110.389 137.433 110.369C137.369 110.359 133.227 109.345 133.227 109.345C133.198 109.335 132.879 109.256 132.849 109.246C132.805 109.231 132.76 109.216 132.715 109.201C132.606 109.166 132.402 109.072 132.303 109.017L129.3 107.376L129.006 107.217L125.904 105.522C125.884 105.512 125.73 105.408 125.74 105.388C125.621 105.323 125.616 105.094 125.68 104.975L126.247 103.941L126.854 102.832Z" fill="#0A0B0B"/>
<path d="M126.898 102.827C126.938 102.753 127.018 102.713 127.092 102.723C127.137 102.708 127.296 102.773 127.336 102.797L130.557 104.562L133.749 106.307C133.799 106.337 133.993 106.452 134.042 106.486C134.107 106.531 134.167 106.576 134.226 106.621C134.271 106.655 134.45 106.815 134.49 106.854C134.49 106.854 137.1 109.33 137.577 109.778C137.637 109.837 137.677 109.907 137.682 109.971C137.711 110.001 137.672 110.131 137.662 110.16C137.632 110.255 137.532 110.315 137.423 110.295C137.289 110.27 133.222 109.246 133.222 109.246C133.158 109.231 132.904 109.161 132.844 109.136C132.8 109.116 132.755 109.106 132.71 109.087C132.636 109.067 132.367 108.927 132.302 108.888L129.3 107.247L129.006 107.088L125.899 105.388C125.864 105.368 125.75 105.268 125.77 105.234C125.69 105.189 125.745 104.94 125.785 104.856L126.297 103.921L126.898 102.827Z" fill="white"/>
<path opacity="0.5" d="M126.898 102.827C126.938 102.753 127.018 102.713 127.092 102.723C127.137 102.708 127.296 102.773 127.336 102.797L130.557 104.562L133.749 106.307C133.799 106.337 133.993 106.452 134.042 106.486C134.107 106.531 134.167 106.576 134.226 106.621C134.271 106.655 134.45 106.815 134.49 106.854C134.49 106.854 137.1 109.33 137.577 109.778C137.637 109.837 137.677 109.907 137.682 109.971C137.711 110.001 137.672 110.131 137.662 110.16C137.632 110.255 137.532 110.315 137.423 110.295C137.289 110.27 133.222 109.246 133.222 109.246C133.158 109.231 132.904 109.161 132.844 109.136C132.8 109.116 132.755 109.106 132.71 109.087C132.636 109.067 132.367 108.927 132.302 108.888L129.3 107.247L129.006 107.088L125.899 105.388C125.864 105.368 125.75 105.268 125.77 105.234C125.69 105.189 125.745 104.94 125.785 104.856L126.297 103.921L126.898 102.827Z" fill="#212222"/>
<path d="M126.939 102.823C126.979 102.748 127.063 102.718 127.138 102.743C127.158 102.738 127.352 102.827 127.372 102.842L130.568 104.587L133.71 106.308C133.735 106.323 133.979 106.457 134.004 106.477C134.068 106.521 134.128 106.561 134.193 106.606C134.262 106.656 134.396 106.775 134.461 106.83C134.461 106.83 136.798 109.027 137.514 109.698C137.573 109.758 137.613 109.823 137.648 109.872C137.688 109.922 137.683 110.016 137.668 110.066C137.643 110.166 137.538 110.24 137.419 110.22C137.22 110.19 133.218 109.141 133.218 109.141C133.124 109.117 132.935 109.062 132.845 109.022C132.801 109.002 132.761 108.987 132.716 108.962C132.681 108.952 132.348 108.774 132.313 108.754L129.306 107.108L129.012 106.949L125.9 105.249C125.845 105.219 125.776 105.124 125.806 105.07C125.766 105.05 125.875 104.771 125.895 104.732L126.357 103.891L126.939 102.823Z" fill="white"/>
<path opacity="0.75" d="M126.939 102.823C126.979 102.748 127.063 102.718 127.138 102.743C127.158 102.738 127.352 102.827 127.372 102.842L130.568 104.587L133.71 106.308C133.735 106.323 133.979 106.457 134.004 106.477C134.068 106.521 134.128 106.561 134.193 106.606C134.262 106.656 134.396 106.775 134.461 106.83C134.461 106.83 136.798 109.027 137.514 109.698C137.573 109.758 137.613 109.823 137.648 109.872C137.688 109.922 137.683 110.016 137.668 110.066C137.643 110.166 137.538 110.24 137.419 110.22C137.22 110.19 133.218 109.141 133.218 109.141C133.124 109.117 132.935 109.062 132.845 109.022C132.801 109.002 132.761 108.987 132.716 108.962C132.681 108.952 132.348 108.774 132.313 108.754L129.306 107.108L129.012 106.949L125.9 105.249C125.845 105.219 125.776 105.124 125.806 105.07C125.766 105.05 125.875 104.771 125.895 104.732L126.357 103.891L126.939 102.823Z" fill="#37393A"/>
<path d="M125.9 105.115C125.825 105.075 125.8 104.985 125.84 104.916L126.412 103.867L126.984 102.818C127.023 102.748 127.113 102.723 127.187 102.763L130.578 104.618L133.969 106.472C134.138 106.561 134.292 106.676 134.426 106.805C134.426 106.805 136.758 108.973 137.613 109.773C137.772 109.922 137.628 110.176 137.409 110.146C137.141 110.106 133.213 109.042 133.213 109.042C133.039 108.997 132.87 108.933 132.711 108.848L129.3 106.984L125.9 105.115Z" fill="white"/>
<path d="M125.9 105.115C125.825 105.075 125.8 104.985 125.84 104.916L126.412 103.867L126.984 102.818C127.023 102.748 127.113 102.723 127.187 102.763L130.578 104.618L133.969 106.472C134.138 106.561 134.292 106.676 134.426 106.805C134.426 106.805 136.758 108.973 137.613 109.773C137.772 109.922 137.628 110.176 137.409 110.146C137.141 110.106 133.213 109.042 133.213 109.042C133.039 108.997 132.87 108.933 132.711 108.848L129.3 106.984L125.9 105.115Z" fill="#4D5051"/>
<path d="M132.915 105.999C132.308 105.666 131.468 105.204 130.543 104.697C129.614 104.194 128.779 103.737 128.167 103.404C127.864 103.24 127.615 103.106 127.446 103.016C127.277 102.927 127.183 102.877 127.183 102.877C127.183 102.877 127.551 103.096 128.142 103.459C128.734 103.822 129.554 104.319 130.479 104.821C131.403 105.328 132.263 105.751 132.89 106.054C133.516 106.352 133.899 106.546 133.899 106.546C133.899 106.546 133.805 106.491 133.636 106.397C133.462 106.303 133.218 106.163 132.915 105.999Z" fill="white"/>
<path opacity="0.7" d="M132.915 105.999C132.308 105.666 131.468 105.204 130.543 104.697C129.614 104.194 128.779 103.737 128.167 103.404C127.864 103.24 127.615 103.106 127.446 103.016C127.277 102.927 127.183 102.877 127.183 102.877C127.183 102.877 127.551 103.096 128.142 103.459C128.734 103.822 129.554 104.319 130.479 104.821C131.403 105.328 132.263 105.751 132.89 106.054C133.516 106.352 133.899 106.546 133.899 106.546C133.899 106.546 133.805 106.491 133.636 106.397C133.462 106.303 133.218 106.163 132.915 105.999Z" fill="#F9F9F9"/>
<path d="M137.131 109.589C137.051 109.51 136.942 109.4 136.803 109.266C136.524 108.993 136.137 108.62 135.709 108.207C135.281 107.799 134.894 107.427 134.61 107.158C134.471 107.024 134.357 106.919 134.277 106.84C134.198 106.765 134.153 106.726 134.153 106.726C134.153 106.726 134.317 106.905 134.57 107.198C134.829 107.491 135.187 107.894 135.614 108.307C136.042 108.719 136.46 109.062 136.763 109.306C137.071 109.549 137.255 109.704 137.255 109.704C137.255 109.704 137.205 109.669 137.131 109.589Z" fill="white"/>
<path opacity="0.7" d="M137.131 109.589C137.051 109.51 136.942 109.4 136.803 109.266C136.524 108.993 136.137 108.62 135.709 108.207C135.281 107.799 134.894 107.427 134.61 107.158C134.471 107.024 134.357 106.919 134.277 106.84C134.198 106.765 134.153 106.726 134.153 106.726C134.153 106.726 134.317 106.905 134.57 107.198C134.829 107.491 135.187 107.894 135.614 108.307C136.042 108.719 136.46 109.062 136.763 109.306C137.071 109.549 137.255 109.704 137.255 109.704C137.255 109.704 137.205 109.669 137.131 109.589Z" fill="#F9F9F9"/>
<path d="M120.337 120.049C120.019 120.576 119.695 121.098 119.377 121.625C118.711 122.718 119.104 124.354 120.252 124.966C121.44 125.592 122.882 125.254 123.593 124.091C123.911 123.564 124.234 123.042 124.553 122.515C125.219 121.421 124.826 119.785 123.678 119.174C122.484 118.542 121.043 118.88 120.337 120.049Z" fill="black"/>
<path d="M187.115 137.012C190.261 140.089 193.499 143.484 195.259 147.576C195.175 147.378 195.364 147.839 195.394 147.915C195.467 148.118 195.543 148.326 195.607 148.535C195.716 148.899 195.801 149.261 195.875 149.629C195.885 149.689 195.925 150.017 195.885 149.684C195.895 149.778 195.905 149.873 195.911 149.967C195.921 150.122 195.925 150.271 195.925 150.424C195.925 150.574 195.915 150.723 195.905 150.868C195.901 150.947 195.841 151.23 195.905 150.882C195.885 150.997 195.865 151.106 195.835 151.216C195.801 151.355 195.756 151.484 195.716 151.618C195.617 151.941 195.805 151.498 195.646 151.782C195.563 151.932 195.483 152.075 195.394 152.22C195.364 152.27 195.328 152.314 195.294 152.359C195.493 152.075 195.264 152.389 195.215 152.443C195.115 152.552 195.006 152.662 194.896 152.761C194.827 152.826 194.757 152.886 194.682 152.946C194.921 152.747 194.672 152.95 194.627 152.98C194.304 153.194 193.976 153.383 193.628 153.547C193.296 153.706 193.857 153.463 193.504 153.602C193.355 153.662 193.206 153.716 193.051 153.765C192.808 153.851 192.564 153.92 192.315 153.99C191.759 154.139 191.196 154.248 190.625 154.332C189.173 154.541 187.553 154.557 186.036 154.517C184.435 154.471 184.435 156.957 186.036 157.003C190.028 157.112 196.243 156.947 198.029 152.508C199.45 148.968 196.925 144.862 194.916 142.102C193.121 139.632 191.053 137.375 188.875 135.242C187.726 134.133 185.966 135.888 187.115 137.012Z" fill="#231300"/>
<path d="M187.095 157.792C186.926 157.733 186.757 157.673 186.594 157.603C186.693 157.643 186.793 157.689 186.892 157.728C186.618 157.609 186.36 157.47 186.121 157.291C186.206 157.355 186.29 157.42 186.375 157.484C186.226 157.365 186.087 157.231 185.968 157.082C186.031 157.166 186.097 157.251 186.161 157.335C186.077 157.221 186.007 157.096 185.948 156.967C185.987 157.067 186.031 157.166 186.071 157.265C186.012 157.116 185.967 156.967 185.948 156.808C185.962 156.917 185.977 157.027 185.992 157.136C185.977 157.013 185.977 156.898 185.992 156.774C185.977 156.883 185.962 156.993 185.948 157.102C185.962 156.997 185.992 156.903 186.027 156.804C185.987 156.903 185.942 157.003 185.902 157.102C185.942 157.007 185.997 156.923 186.057 156.838C185.992 156.923 185.928 157.007 185.862 157.092C185.928 157.017 185.992 156.947 186.067 156.888C185.982 156.953 185.898 157.017 185.813 157.082C185.918 157.003 186.027 156.943 186.146 156.888C186.047 156.927 185.948 156.973 185.848 157.013C186.037 156.937 186.23 156.888 186.435 156.858C186.325 156.873 186.216 156.888 186.107 156.903C186.439 156.858 186.783 156.858 187.121 156.893C187.012 156.878 186.902 156.863 186.793 156.848C186.892 156.863 186.986 156.883 187.081 156.917C186.982 156.878 186.882 156.834 186.783 156.794C186.852 156.824 186.916 156.863 186.976 156.907C186.892 156.844 186.807 156.778 186.723 156.714C186.777 156.764 186.823 156.814 186.872 156.868C186.807 156.784 186.743 156.699 186.678 156.615C186.837 156.834 186.942 157.086 187.056 157.331C187.191 157.613 187.33 157.902 187.459 158.186C187.419 158.086 187.374 157.987 187.334 157.888C187.364 157.957 187.389 158.027 187.399 158.106C187.384 157.997 187.369 157.888 187.354 157.778C187.36 157.812 187.36 157.848 187.354 157.882C187.369 157.773 187.384 157.663 187.399 157.554C187.394 157.569 187.389 157.589 187.384 157.603C187.423 157.504 187.469 157.405 187.509 157.305C187.499 157.321 187.493 157.335 187.483 157.355C187.548 157.271 187.612 157.186 187.678 157.102C187.658 157.126 187.638 157.152 187.612 157.172C187.698 157.106 187.781 157.042 187.867 156.977C187.841 156.997 187.811 157.013 187.781 157.023C187.881 156.983 187.98 156.937 188.08 156.898C187.891 156.973 187.682 157.003 187.479 157.032C187.588 157.017 187.698 157.003 187.807 156.987C187.469 157.027 187.135 157.027 186.797 156.983C186.906 156.997 187.016 157.013 187.125 157.027C186.946 157.003 186.773 156.967 186.608 156.903C186.708 156.943 186.807 156.987 186.906 157.027C186.837 156.997 186.777 156.963 186.718 156.917C186.803 156.983 186.887 157.047 186.972 157.112C186.932 157.077 186.896 157.042 186.862 157.003C186.926 157.086 186.992 157.172 187.056 157.255C187.026 157.216 187.006 157.176 186.986 157.132C187.026 157.231 187.071 157.331 187.111 157.43C187.095 157.385 187.085 157.341 187.075 157.291C187.091 157.4 187.105 157.51 187.121 157.619C187.115 157.589 187.115 157.559 187.121 157.524C187.105 157.633 187.091 157.743 187.075 157.852C187.081 157.822 187.085 157.792 187.095 157.763C187.056 157.862 187.012 157.961 186.972 158.061C186.982 158.031 186.996 158.007 187.012 157.981C186.946 158.067 186.882 158.15 186.817 158.236C186.837 158.206 186.862 158.186 186.887 158.16C186.803 158.226 186.717 158.29 186.634 158.355C186.664 158.335 186.698 158.315 186.733 158.3C186.634 158.339 186.534 158.385 186.435 158.425C186.524 158.395 186.608 158.375 186.703 158.359C186.594 158.375 186.485 158.389 186.375 158.405C186.529 158.385 186.683 158.385 186.843 158.399C186.733 158.385 186.624 158.369 186.514 158.355C186.688 158.379 186.852 158.425 187.016 158.488C186.916 158.449 186.817 158.405 186.718 158.365C186.877 158.434 187.026 158.518 187.165 158.623C187.081 158.558 186.996 158.494 186.912 158.429C187.036 158.528 187.145 158.638 187.24 158.757C187.175 158.673 187.111 158.588 187.046 158.504C187.111 158.594 187.171 158.683 187.22 158.782C187.181 158.683 187.135 158.584 187.095 158.484C187.121 158.544 187.135 158.594 187.151 158.657C187.135 158.548 187.121 158.439 187.105 158.329C187.111 158.369 187.115 158.409 187.111 158.444C187.125 158.335 187.141 158.226 187.155 158.116C187.151 158.156 187.141 158.19 187.125 158.23C187.165 158.13 187.21 158.031 187.25 157.932C187.235 157.967 187.215 157.997 187.191 158.021C187.254 157.937 187.32 157.852 187.384 157.768C187.344 157.808 187.304 157.842 187.26 157.878C187.344 157.812 187.429 157.748 187.513 157.683C187.394 157.768 187.27 157.838 187.135 157.898C187.235 157.858 187.334 157.812 187.433 157.773C187.28 157.832 187.121 157.872 186.962 157.898C187.071 157.882 187.181 157.868 187.29 157.852C187.125 157.872 186.962 157.868 186.797 157.848C186.906 157.862 187.016 157.878 187.125 157.892C186.962 157.868 186.807 157.822 186.654 157.758C186.753 157.798 186.852 157.842 186.952 157.882C186.916 157.868 186.887 157.852 186.852 157.832C186.554 157.683 186.226 157.613 185.892 157.709C185.604 157.788 185.291 158.011 185.152 158.28C184.854 158.842 184.977 159.672 185.6 159.98C186.544 160.453 187.622 160.463 188.563 159.96C189.239 159.592 189.676 158.946 189.571 158.16C189.497 157.623 189.179 157.106 188.776 156.748C188.01 156.062 187.012 155.77 185.997 155.963C185.226 156.112 184.635 156.768 184.635 157.564C184.635 158.23 185.047 158.886 185.659 159.165C186.166 159.399 186.718 159.488 187.274 159.498C187.513 159.503 187.742 159.478 187.976 159.449C188.215 159.413 188.463 159.389 188.696 159.309C189.084 159.175 189.462 158.936 189.656 158.558C189.855 158.166 189.899 157.699 189.756 157.281C189.591 156.814 189.342 156.361 189.129 155.913C188.905 155.442 188.642 155.014 188.195 154.726C187.747 154.437 187.2 154.388 186.683 154.382C185.798 154.378 184.884 154.577 184.227 155.203C183.352 156.038 183.317 157.4 183.899 158.405C184.446 159.349 185.445 159.846 186.439 160.179C187.056 160.388 187.827 159.94 187.97 159.309C188.119 158.633 187.752 158.017 187.095 157.792Z" fill="#231300"/>
<path d="M123.489 186.186L123.986 201.095L134.923 194.877L135.421 180.712L123.489 186.186Z" fill="#FF4545"/>
<path d="M112.054 180.513L123.489 186.186L123.986 201.095L112.879 195.92L112.054 180.513Z" fill="#FF1800"/>
<path d="M112.054 180.513L123.489 186.186L135.421 180.712L123.812 176.237L112.054 180.513Z" fill="#FF7178"/>
<path d="M126.65 168.895L127.148 183.804L138.03 179.102L138.582 163.422L126.65 168.895Z" fill="#53A5D5"/>
<path d="M115.216 163.223L126.65 168.895L127.148 183.805L116.041 178.629L115.216 163.223Z" fill="#348FB6"/>
<path d="M115.216 163.223L126.65 168.895L138.582 163.421L126.974 158.946L115.216 163.223Z" fill="#AAE3F1"/>
<path d="M123.583 155.809L124.08 170.718L134.983 165.548L135.515 150.335L123.583 155.809Z" fill="#FF4545"/>
<path d="M112.148 150.132L123.583 155.809L124.08 170.72L112.974 165.544L112.148 150.132Z" fill="#FF1800"/>
<path d="M112.148 150.132L123.583 155.81L135.515 150.335L123.906 145.856L112.148 150.132Z" fill="#FF7178"/>
<path d="M78.4214 151.435L78.8191 163.396L87.5492 159.628L87.9917 147.044L78.4214 151.435Z" fill="#53A5D5"/>
<path d="M69.2485 146.885L78.4211 151.434L78.8188 163.396L69.9098 159.244L69.2485 146.885Z" fill="#348FB6"/>
<path d="M69.2485 146.886L78.4211 151.434L87.9914 147.044L78.6796 143.454L69.2485 146.886Z" fill="#AAE3F1"/>
<path d="M79.7037 152.379C78.4956 153.194 78.9778 154.899 79.8379 155.755C80.698 156.61 82.3734 156.64 83.5815 155.819C84.7896 155.004 85.7342 153.497 84.6952 152.468C83.8351 151.613 80.9118 151.558 79.7037 152.379Z" fill="black"/>
<path d="M83.3827 151.355C82.4182 150.997 80.1214 150.361 80.1562 151.206C80.176 151.699 83.2385 153.453 84.73 153.31C85.6746 153.22 84.3472 151.713 83.3827 151.355Z" fill="black"/>
<path d="M98.3076 144.295C98.5313 146.671 98.0192 149.127 96.5824 151.066C95.0363 153.144 92.5803 154.135 90.0349 154.105C87.9269 154.079 85.8438 153.453 83.9297 152.603C83.4773 152.404 82.9553 152.474 82.6819 152.931C82.4482 153.319 82.5576 153.98 83.01 154.179C86.4255 155.696 90.4574 156.674 94.0618 155.208C96.8012 154.095 98.765 151.768 99.6499 148.974C100.127 147.473 100.281 145.862 100.132 144.295C100.023 143.137 98.1982 143.122 98.3076 144.295Z" fill="black"/>
<path d="M69.8304 152.831C69.8155 152.572 69.8004 152.314 69.8352 152.055C69.8253 152.144 69.8105 152.24 69.8005 152.329C69.8155 152.234 69.8453 152.144 69.8701 152.051C69.9049 151.921 69.7457 152.26 69.8451 152.12C69.87 152.085 69.9646 151.951 69.8552 152.09C69.7558 152.224 69.8403 152.125 69.8652 152.095C69.9397 152.005 69.6564 152.22 69.8005 152.14C69.8304 152.125 69.865 152.11 69.8899 152.09C69.7059 152.21 69.716 152.16 69.8403 152.135C69.7508 152.144 69.6564 152.16 69.5669 152.17C69.6216 152.164 69.6662 152.164 69.7209 152.164C69.6314 152.154 69.5369 152.14 69.4474 152.13C69.5021 152.14 69.5568 152.16 69.6115 152.17C69.4623 152.1 69.4227 152.085 69.4923 152.125C69.5569 152.164 69.5271 152.14 69.3978 152.045C69.4177 152.081 69.4724 152.12 69.4973 152.144C69.5768 152.22 69.378 151.941 69.4575 152.1C69.4873 152.154 69.517 152.204 69.5419 152.26C69.6413 152.448 69.4673 152.035 69.5319 152.24C69.5667 152.349 69.6065 152.458 69.6413 152.568C69.8004 153.055 69.9944 153.546 70.0789 154.054C70.069 153.964 70.0541 153.87 70.0441 153.781C70.064 153.94 70.0689 154.099 70.0539 154.262C70.0639 154.173 70.0789 154.079 70.0889 153.99C70.0889 154 70.0689 154.153 70.0539 154.153C70.0738 154.103 70.0939 154.059 70.1137 154.01C70.1535 153.934 70.2081 153.88 70.2777 153.835C70.3522 153.785 70.3673 153.771 70.3226 153.795C70.253 153.835 70.2976 153.815 70.4566 153.741C70.4169 153.735 70.3524 153.765 70.3076 153.771C70.3971 153.761 70.4914 153.745 70.5809 153.735C70.4765 153.745 70.3721 153.741 70.2628 153.731C70.3522 153.741 70.4467 153.755 70.5362 153.765C70.4765 153.755 70.3673 153.706 70.3126 153.711C70.4568 153.781 70.4964 153.791 70.4268 153.755C70.3572 153.716 70.3922 153.741 70.5214 153.835C70.4916 153.811 70.4666 153.785 70.4417 153.755C70.5362 153.885 70.5612 153.92 70.5164 153.855C70.4816 153.801 70.4468 153.745 70.417 153.686C70.2728 153.417 70.1584 153.129 70.0291 152.85C69.9297 152.632 69.6413 152.443 69.4176 152.379C69.174 152.309 68.846 152.343 68.6272 152.483C68.1251 152.806 68.0206 153.363 68.2592 153.885C68.4034 154.203 68.5326 154.541 68.7166 154.839C68.99 155.282 69.4076 155.625 69.9297 155.73C70.4119 155.823 70.939 155.814 71.3716 155.551C71.9085 155.227 72.1173 154.616 72.1024 154.019C72.0924 153.566 71.973 153.129 71.8338 152.701C71.7244 152.363 71.6201 152.025 71.5008 151.693C71.3268 151.21 71.0981 150.798 70.6855 150.484C70.253 150.152 69.6613 150.012 69.1343 150.196C68.5427 150.404 68.14 150.848 67.9113 151.419C67.7324 151.862 67.7373 152.359 67.7721 152.826C67.8069 153.358 68.2194 153.875 68.7961 153.85C69.3331 153.831 69.8701 153.403 69.8304 152.831Z" fill="black"/>
</svg>
